# xmcd
#
# Track frame offsets: 
#        150
#        24287
#        37925
#        52407
#        71137
#        89822
#        111295
#        132082
#        153410
#        173155
#
# Disc length: 2509 seconds
#
# Revision: 0
# Processed by: cddbd v1.5.1PL0 Copyright (c) Steve Scherf et al.
# Submitted via: ExactAudioCopy v0.95a3
#
DISCID=8909cb0a
DTITLE=Сергей Захаров - На Хрупких Клавишах Души...
DYEAR=1995
DGENRE=Pop
TTITLE0=Ноктюрн
TTITLE1=Старая Пластинка
TTITLE2=Вы Молоды, Но...
TTITLE3=Книжный Роман
TTITLE4=Друзьям
TTITLE5=Лунное Танго
TTITLE6=Белый Сон
TTITLE7=Русь
TTITLE8=На Вечеринке
TTITLE9=Вспоминайте, Братцы
EXTD=
EXTT0=
EXTT1=
EXTT2=
EXTT3=
EXTT4=
EXTT5=
EXTT6=
EXTT7=
EXTT8=
EXTT9=
PLAYORDER=
